<svg width="180" height="36" viewBox="0 0 180 36" fill="none" xmlns="http://www.w3.org/2000/svg">
<path d="M1.00806 26.9691L4.68506 24.4463L13.4791 29.0468L21.9936 24.4463V20.1426L12.0391 25.6335C12.0391 25.6335 10.1237 24.8915 10.1237 23.1106C10.1237 21.3298 13.1576 19.8458 15.073 18.8069C16.9884 17.7681 21.3085 15.0968 21.3085 15.0968L26.104 17.0261V27.1175L13.7168 33.8848L1.00806 26.9691Z" fill="#435191"/>
<path d="M25.0959 9.79831L21.5268 12.7003L12.541 8.195L4.22698 13.5982L4.40893 18.2478L14.1366 11.8185C14.1366 11.8185 16.0821 12.5239 16.1661 14.4479C16.2361 16.3719 13.2688 18.1195 11.3932 19.338C9.5177 20.5566 5.31871 23.667 5.31871 23.667L0.419898 21.8071L0 10.9206L12.1071 3.00025L25.0959 9.79831Z" fill="#435191"/>
<path d="M32.858 24.239V22.835H39.267V24.239H36.953V25.578C36.953 26.592 37.109 27.125 37.889 27.97C38.448 28.581 39.124 29.244 39.774 29.829L38.721 30.921C38.162 30.401 37.59 29.829 37.109 29.335C36.615 28.828 36.238 28.399 36.147 28.191H36.121C36.004 28.438 35.562 28.945 35.133 29.387C34.652 29.894 34.158 30.388 33.443 31.051L32.364 29.946C33.066 29.322 33.729 28.672 34.288 28.061C35.055 27.203 35.289 26.657 35.289 25.578V24.239H32.858ZM38.682 27.268V25.838H40.931V21.782H42.582V33.872H40.931V27.268H38.682ZM43.715 28.529H54.791V29.92H50.085V33.872H48.434V29.92H43.715V28.529ZM49.292 25.513H49.279C49.162 25.76 48.642 26.085 47.797 26.514C47.069 26.878 45.912 27.411 45.093 27.749L44.417 26.397C45.327 26.02 46.419 25.526 47.29 25.058C48.096 24.629 48.421 24.135 48.421 23.342V22.198H50.085V23.342C50.085 24.135 50.41 24.629 51.216 25.058C52.087 25.526 53.179 26.02 54.089 26.397L53.426 27.723C52.607 27.385 51.45 26.852 50.722 26.488C49.877 26.059 49.422 25.747 49.292 25.513ZM55.6381 24.226V22.822H62.0861V24.226H59.7461V25.604C59.7461 26.618 59.9021 27.151 60.6821 27.996C61.2411 28.607 61.9171 29.27 62.5671 29.855L61.5141 30.947C60.9551 30.427 60.3831 29.855 59.9021 29.361C59.4081 28.854 59.0311 28.425 58.9401 28.217H58.9141C58.7971 28.464 58.3551 28.971 57.9261 29.413C57.4451 29.92 56.9511 30.414 56.2361 31.077L55.1571 29.972C55.8591 29.348 56.5221 28.698 57.0811 28.087C57.8481 27.229 58.0821 26.683 58.0821 25.604V24.226H55.6381ZM65.2321 21.782V33.872H63.5811V21.782H65.2321ZM69.7321 24.226V22.822H76.1801V24.226H73.8401V25.604C73.8401 26.618 73.9961 27.151 74.7761 27.996C75.3351 28.607 76.0111 29.27 76.6611 29.855L75.6081 30.947C75.0491 30.427 74.4771 29.855 73.9961 29.361C73.5021 28.854 73.1251 28.425 73.0341 28.217H73.0081C72.8911 28.464 72.4491 28.971 72.0201 29.413C71.5391 29.92 71.0451 30.414 70.3301 31.077L69.2511 29.972C69.9531 29.348 70.6161 28.698 71.1751 28.087C71.9421 27.229 72.1761 26.683 72.1761 25.604V24.226H69.7321ZM79.3261 21.782V33.872H77.6751V21.782H79.3261ZM84.4891 29.686V32.338H90.7291V33.742H82.8381V29.686H84.4891ZM90.5341 21.782V30.388H88.8961V21.782H90.5341ZM81.2131 23.94V22.536H87.4791V23.94H85.2171V24.85C85.2171 25.487 85.3731 25.864 86.0621 26.397C86.6081 26.813 87.2711 27.268 87.9211 27.684L87.0371 28.854C86.4651 28.477 85.9061 28.087 85.4251 27.736C84.8791 27.333 84.5411 27.034 84.4891 26.904H84.4761C84.4241 27.06 84.0601 27.411 83.4621 27.879C82.9031 28.321 82.3181 28.776 81.6681 29.231L80.7061 28.022C81.5251 27.463 82.3181 26.852 82.8641 26.371C83.3191 25.968 83.5791 25.487 83.5791 24.85V23.94H81.2131ZM105.278 22.029V26.02H106.318V21.782H107.878V33.872H106.318V27.437H105.278V33.287H103.718V22.029H105.278ZM97.6212 24.343V22.939H103.016V24.343H101.157V25.877C101.157 26.761 101.365 27.216 101.898 27.879C102.379 28.49 103.042 29.192 103.601 29.738L102.522 30.752C102.028 30.232 101.495 29.673 101.105 29.205C100.793 28.841 100.52 28.516 100.429 28.308H100.416C100.338 28.516 100.052 28.867 99.7272 29.257C99.2982 29.777 98.7002 30.44 98.1672 30.973L97.0882 29.894C97.6212 29.374 98.2972 28.646 98.7912 28.022C99.3502 27.32 99.5582 26.852 99.5582 25.89V24.343H97.6212ZM116.707 22.029V26.15H117.734V21.782H119.294V33.872H117.734V27.567H116.707V33.287H115.147V22.029H116.707ZM111.715 30.882C109.973 30.882 109.024 29.699 109.024 28.529V27.905C109.024 26.735 109.973 25.552 111.715 25.552C113.457 25.552 114.406 26.735 114.406 27.905V28.529C114.406 29.699 113.457 30.882 111.715 30.882ZM108.608 23.732H110.896V22.12H112.495V23.732H114.549V25.084H108.608V23.732ZM111.715 26.865C110.87 26.865 110.454 27.515 110.454 27.996V28.438C110.454 28.919 110.87 29.569 111.715 29.569C112.56 29.569 112.976 28.919 112.976 28.438V27.996C112.976 27.515 112.56 26.865 111.715 26.865ZM126.303 34.236C124.158 34.236 122.52 33.365 122.52 31.922V31.35C122.52 29.907 124.158 29.036 126.303 29.036C128.448 29.036 130.086 29.907 130.086 31.35V31.922C130.086 33.365 128.448 34.236 126.303 34.236ZM128.409 28.971V26.15H126.472V24.759H128.409V21.782H130.047V28.971H128.409ZM126.303 30.375C125.172 30.375 124.132 30.869 124.132 31.48V31.792C124.132 32.403 125.172 32.897 126.303 32.897C127.434 32.897 128.474 32.403 128.474 31.792V31.48C128.474 30.869 127.434 30.375 126.303 30.375ZM120.583 23.901V22.51H126.823V23.901H124.574V24.694C124.574 25.331 124.73 25.695 125.419 26.228C125.965 26.644 126.615 27.086 127.265 27.502L126.394 28.659C125.822 28.282 125.276 27.905 124.795 27.554C124.249 27.151 123.898 26.865 123.846 26.735H123.833C123.781 26.891 123.417 27.242 122.819 27.71C122.26 28.152 121.688 28.594 121.038 29.049L120.076 27.853C120.895 27.294 121.675 26.696 122.221 26.215C122.676 25.812 122.936 25.331 122.936 24.694V23.901H120.583ZM140.93 28.984H137.706V30.96H142.425V32.351H131.349V30.96H136.068V28.984H132.844V22.614H134.482V24.551H139.292V22.614H140.93V28.984ZM134.482 27.606H139.292V25.942H134.482V27.606ZM155.622 21.782V33.872H153.971V21.782H155.622ZM151.046 27.892C151.605 28.503 152.281 29.166 152.957 29.777L151.904 30.882C151.319 30.336 150.747 29.764 150.266 29.27C149.772 28.763 149.395 28.334 149.304 28.113H149.278C149.2 28.347 148.732 28.88 148.303 29.322C147.822 29.829 147.315 30.323 146.574 31.012L145.495 29.894C146.223 29.244 146.886 28.594 147.445 27.983C148.199 27.151 148.446 26.514 148.446 25.448V22.627H150.123V25.448C150.123 26.475 150.266 27.047 151.046 27.892ZM156.781 30.96H167.857V32.351H156.781V30.96ZM162.371 26.579H162.358C162.228 26.878 161.747 27.203 161.097 27.645C160.395 28.113 159.472 28.672 158.224 29.374L157.418 28.074C158.367 27.541 159.407 26.93 160.161 26.41C161.188 25.708 161.487 25.071 161.487 23.94V22.601H163.151V23.94C163.151 25.071 163.45 25.708 164.477 26.41C165.231 26.93 166.271 27.541 167.22 28.074L166.427 29.348C165.179 28.646 164.256 28.087 163.554 27.619C162.904 27.177 162.501 26.865 162.371 26.579ZM170.576 33.885V29.387H178.415V33.885H170.576ZM168.418 22.432H173.241V23.784H169.991V24.772H172.708V26.098H169.991V27.086C171.356 27.086 172.526 27.047 173.618 26.93L173.774 28.243C172.604 28.386 171.109 28.438 168.418 28.438V22.432ZM174.554 28.815V25.994H173.358V24.59H174.554V21.938H176.101V28.815H174.554ZM178.415 21.782V28.841H176.855V21.782H178.415ZM172.201 30.739V32.533H176.79V30.739H172.201Z" fill="#435191"/>
<path d="M44.4767 6.891C44.4767 7.605 44.284 8.251 43.8987 8.829C43.5133 9.407 42.9523 9.832 42.2157 10.104L44.8167 15H40.6007L38.5267 10.733H37.1327V15H33.3757V3.304H40.5327C41.3713 3.304 42.0853 3.46833 42.6747 3.797C43.2753 4.11433 43.723 4.55067 44.0177 5.106C44.3237 5.65 44.4767 6.245 44.4767 6.891ZM40.6517 7.044C40.6517 6.738 40.5497 6.483 40.3457 6.279C40.1417 6.075 39.8923 5.973 39.5977 5.973H37.1327V8.132H39.5977C39.8923 8.132 40.1417 8.03 40.3457 7.826C40.5497 7.61067 40.6517 7.35 40.6517 7.044ZM46.2671 3.304H56.3821V6.109H50.0241V7.724H55.4641V10.41H50.0241V12.195H56.5011V15H46.2671V3.304ZM63.2617 3.304C67.353 3.304 69.3987 5.25333 69.3987 9.152C69.3987 13.0507 67.353 15 63.2617 15H58.1957V3.304H63.2617ZM61.9527 12.195H63.1937C64.769 12.195 65.5567 11.3507 65.5567 9.662V8.642C65.5567 6.95333 64.769 6.109 63.1937 6.109H61.9527V12.195ZM71.2571 15V3.304H75.0141V15H71.2571ZM81.3835 5.82C82.5849 5.82 83.5992 6.058 84.4265 6.534C85.2652 6.99867 85.6845 7.724 85.6845 8.71H82.5395C82.5395 8.38133 82.3922 8.149 82.0975 8.013C81.8935 7.89967 81.6385 7.843 81.3325 7.843C80.5165 7.843 80.1085 8.03567 80.1085 8.421C80.1085 8.63633 80.2502 8.78933 80.5335 8.88C80.8169 8.97067 81.2815 9.067 81.9275 9.169C82.7209 9.28233 83.3839 9.41833 83.9165 9.577C84.4492 9.72433 84.9139 9.99633 85.3105 10.393C85.7072 10.7783 85.9055 11.3223 85.9055 12.025C85.9055 13.1697 85.4749 13.9857 84.6135 14.473C83.7635 14.9603 82.6472 15.204 81.2645 15.204C80.4712 15.204 79.7232 15.0963 79.0205 14.881C78.3179 14.6543 77.7455 14.3087 77.3035 13.844C76.8615 13.3793 76.6405 12.79 76.6405 12.076H79.7855V12.144C79.7969 12.5293 79.9555 12.8013 80.2615 12.96C80.5789 13.1073 80.9132 13.181 81.2645 13.181C82.2052 13.181 82.6755 12.96 82.6755 12.518C82.6755 12.2913 82.5282 12.127 82.2335 12.025C81.9389 11.923 81.4572 11.8153 80.7885 11.702C79.9839 11.566 79.3209 11.4187 78.7995 11.26C78.2895 11.1013 77.8419 10.835 77.4565 10.461C77.0712 10.0757 76.8785 9.543 76.8785 8.863C76.8785 7.76367 77.2922 6.98167 78.1195 6.517C78.9582 6.05233 80.0462 5.82 81.3835 5.82Z" fill="#435191"/>
</svg>
