<svg width="185" height="37" viewBox="0 0 185 37" fill="none" xmlns="http://www.w3.org/2000/svg">
<path d="M1.00806 26.9687L4.68507 24.4458L13.4791 29.0464L21.9936 24.4458V20.1421L12.0391 25.6331C12.0391 25.6331 10.1237 24.8911 10.1237 23.1102C10.1237 21.3294 13.1576 19.8453 15.073 18.8065C16.9884 17.7677 21.3085 15.0964 21.3085 15.0964L26.104 17.0256V27.1171L13.7168 33.8843L1.00806 26.9687Z" fill="#435191"/>
<path d="M25.0959 9.79807L21.5268 12.7001L12.541 8.19475L4.22698 13.5979L4.40893 18.2475L14.1366 11.8182C14.1366 11.8182 16.0821 12.5237 16.1661 14.4477C16.2361 16.3717 13.2688 18.1193 11.3932 19.3378C9.5177 20.5563 5.31871 23.6667 5.31871 23.6667L0.419898 21.8069L0 10.9204L12.1071 3.00001L25.0959 9.79807Z" fill="#435191"/>
<path d="M32.406 31.88H44.334V33.378H32.406V31.88ZM38.426 27.162H38.412C38.272 27.484 37.754 27.834 37.054 28.31C36.298 28.814 35.304 29.416 33.96 30.172L33.092 28.772C34.114 28.198 35.234 27.54 36.046 26.98C37.152 26.224 37.474 25.538 37.474 24.32V22.878H39.266V24.32C39.266 25.538 39.588 26.224 40.694 26.98C41.506 27.54 42.626 28.198 43.648 28.772L42.794 30.144C41.45 29.388 40.456 28.786 39.7 28.282C39 27.806 38.566 27.47 38.426 27.162ZM45.2462 23.13H51.5322V31.628H45.2462V23.13ZM49.7682 30.13V24.628H47.0102V30.13H49.7682ZM54.9482 21.996V26.574H56.7402V28.114H54.9482V35.016H53.1702V21.996H54.9482ZM56.8264 31.88H68.7544V33.378H56.8264V31.88ZM67.2284 28.618V30.102H58.3664V22.962H67.0884V24.446H60.1164V25.79H66.9764V27.274H60.1164V28.618H67.2284ZM80.5586 22.262V26.56H81.6786V21.996H83.3586V35.016H81.6786V28.086H80.5586V34.386H78.8786V22.262H80.5586ZM72.3126 24.754V23.242H78.1226V24.754H76.1206V26.406C76.1206 27.358 76.3446 27.848 76.9186 28.562C77.4366 29.22 78.1506 29.976 78.7526 30.564L77.5906 31.656C77.0586 31.096 76.4846 30.494 76.0646 29.99C75.7286 29.598 75.4346 29.248 75.3366 29.024H75.3226C75.2386 29.248 74.9306 29.626 74.5806 30.046C74.1186 30.606 73.4746 31.32 72.9006 31.894L71.7386 30.732C72.3126 30.172 73.0406 29.388 73.5726 28.716C74.1746 27.96 74.3986 27.456 74.3986 26.42V24.754H72.3126ZM92.8668 22.262V26.7H93.9728V21.996H95.6528V35.016H93.9728V28.226H92.8668V34.386H91.1868V22.262H92.8668ZM87.4908 31.796C85.6148 31.796 84.5928 30.522 84.5928 29.262V28.59C84.5928 27.33 85.6148 26.056 87.4908 26.056C89.3668 26.056 90.3888 27.33 90.3888 28.59V29.262C90.3888 30.522 89.3668 31.796 87.4908 31.796ZM84.1448 24.096H86.6088V22.36H88.3308V24.096H90.5428V25.552H84.1448V24.096ZM87.4908 27.47C86.5808 27.47 86.1328 28.17 86.1328 28.688V29.164C86.1328 29.682 86.5808 30.382 87.4908 30.382C88.4008 30.382 88.8488 29.682 88.8488 29.164V28.688C88.8488 28.17 88.4008 27.47 87.4908 27.47ZM99.5049 31.852C97.5309 31.852 96.6069 30.522 96.6069 28.17V26.658C96.6069 24.306 97.5309 22.976 99.5049 22.976C100.877 22.976 101.745 23.62 102.137 24.81H103.565V22.262H105.231V34.386H103.565V30.046H102.137C101.731 31.222 100.863 31.852 99.5049 31.852ZM107.779 21.996V35.016H106.099V21.996H107.779ZM99.5049 24.516C98.5389 24.516 98.2309 25.328 98.2309 26.854V27.974C98.2309 29.5 98.5389 30.312 99.5049 30.312C100.471 30.312 100.779 29.5 100.779 27.974V26.854C100.779 25.328 100.471 24.516 99.5049 24.516ZM102.403 28.17C102.403 28.31 102.403 28.45 102.389 28.576H103.565V26.28H102.389C102.403 26.406 102.403 26.532 102.403 26.658V28.17ZM118.967 21.996V24.88H120.675V26.42H118.967V29.78H117.203V21.996H118.967ZM115.019 35.408C112.639 35.408 111.029 34.4 111.029 32.902V32.342C111.029 30.844 112.639 29.836 115.019 29.836C117.399 29.836 119.009 30.844 119.009 32.342V32.902C119.009 34.4 117.399 35.408 115.019 35.408ZM115.019 31.278C113.605 31.278 112.765 31.908 112.765 32.454V32.79C112.765 33.336 113.605 33.966 115.019 33.966C116.433 33.966 117.273 33.336 117.273 32.79V32.454C117.273 31.908 116.433 31.278 115.019 31.278ZM115.299 22.598V28.94H109.139V22.598H110.875V24.46H113.563V22.598H115.299ZM110.875 25.93V27.47H113.563V25.93H110.875ZM129.133 23.256V25.062H130.813V22.262H132.479V34.386H130.813V30.074H129.091V28.59H130.813V26.532H129.133C129.077 28.842 128.363 29.836 124.765 32.3L123.757 30.956C127.005 28.786 127.425 28.086 127.425 25.986V24.782H124.107V23.256H129.133ZM135.153 21.996V35.016H133.473V21.996H135.153ZM137.522 24.502V23.06H141.106V21.702H142.87V23.06H146.454V24.502H142.87V24.642C142.87 25.062 143.164 25.426 143.738 25.622C144.844 25.986 145.908 26.28 146.944 26.546L146.496 27.89C145.53 27.638 144.354 27.302 143.402 27.008C142.562 26.756 142.114 26.476 142.016 26.28H142.002C141.904 26.476 141.428 26.756 140.588 27.022C139.608 27.33 138.474 27.652 137.48 27.904L137.032 26.546C137.998 26.294 139.104 26.014 140.21 25.622C140.798 25.412 141.106 25.062 141.106 24.642V24.502H137.522ZM137.578 32.342V30.886H146.342V35.184H144.578V32.342H137.578ZM136.024 28.394H147.952V29.85H136.024V28.394ZM159.196 21.996V35.016H157.418V21.996H159.196ZM154.268 28.576C154.87 29.234 155.598 29.948 156.326 30.606L155.192 31.796C154.562 31.208 153.946 30.592 153.428 30.06C152.896 29.514 152.49 29.052 152.392 28.814H152.364C152.28 29.066 151.776 29.64 151.314 30.116C150.796 30.662 150.25 31.194 149.452 31.936L148.29 30.732C149.074 30.032 149.788 29.332 150.39 28.674C151.202 27.778 151.468 27.092 151.468 25.944V22.906H153.274V25.944C153.274 27.05 153.428 27.666 154.268 28.576ZM160.444 31.88H172.372V33.378H160.444V31.88ZM166.464 27.162H166.45C166.31 27.484 165.792 27.834 165.092 28.31C164.336 28.814 163.342 29.416 161.998 30.172L161.13 28.772C162.152 28.198 163.272 27.54 164.084 26.98C165.19 26.224 165.512 25.538 165.512 24.32V22.878H167.304V24.32C167.304 25.538 167.626 26.224 168.732 26.98C169.544 27.54 170.664 28.198 171.686 28.772L170.832 30.144C169.488 29.388 168.494 28.786 167.738 28.282C167.038 27.806 166.604 27.47 166.464 27.162ZM175.3 35.03V30.186H183.742V35.03H175.3ZM172.976 22.696H178.17V24.152H174.67V25.216H177.596V26.644H174.67V27.708C176.14 27.708 177.4 27.666 178.576 27.54L178.744 28.954C177.484 29.108 175.874 29.164 172.976 29.164V22.696ZM179.584 29.57V26.532H178.296V25.02H179.584V22.164H181.25V29.57H179.584ZM183.742 21.996V29.598H182.062V21.996H183.742ZM177.05 31.642V33.574H181.992V31.642H177.05Z" fill="#435191"/>
<path d="M33.3757 3.304H43.4907V6.109H37.1327V7.724H42.5727V10.41H37.1327V12.195H43.6097V15H33.3757V3.304ZM44.8112 9.152C44.8112 7.16867 45.3552 5.667 46.4432 4.647C47.5426 3.61567 49.1009 3.1 51.1182 3.1C53.1356 3.1 54.6939 3.61567 55.7932 4.647C56.8926 5.67833 57.4422 7.18 57.4422 9.152C57.4422 10.4667 57.1929 11.5773 56.6942 12.484C56.2069 13.3793 55.4929 14.0593 54.5522 14.524L57.2212 17.227H52.7502L50.9482 15.204C48.9762 15.17 47.4576 14.643 46.3922 13.623C45.3382 12.5917 44.8112 11.1013 44.8112 9.152ZM53.6002 8.608C53.6002 7.78067 53.3849 7.12333 52.9542 6.636C52.5349 6.14867 51.9229 5.905 51.1182 5.905C50.3136 5.905 49.7016 6.14867 49.2822 6.636C48.8629 7.12333 48.6532 7.78067 48.6532 8.608V9.696C48.6532 10.5233 48.8629 11.1807 49.2822 11.668C49.7016 12.1553 50.3136 12.399 51.1182 12.399C51.9229 12.399 52.5349 12.1553 52.9542 11.668C53.3849 11.1807 53.6002 10.5233 53.6002 9.696V8.608ZM69.1724 15V10.784C69.1724 10.2627 69.1894 9.73 69.2234 9.186C69.2687 8.63067 69.314 8.166 69.3594 7.792C69.4047 7.418 69.433 7.18 69.4444 7.078H69.3764L67.2174 15H64.2764L62.1004 7.095H62.0324C62.0437 7.197 62.072 7.435 62.1174 7.809C62.174 8.17167 62.225 8.63067 62.2704 9.186C62.3157 9.73 62.3384 10.2627 62.3384 10.784V15H58.8874V3.304H64.1914L65.9594 10.053H66.0274L67.7784 3.304H72.8954V15H69.1724ZM79.7521 3.1C81.2481 3.1 82.4777 3.406 83.4411 4.018C84.4044 4.61867 84.8974 5.514 84.9201 6.704V6.908H81.4011V6.84C81.4011 6.5 81.2764 6.21667 81.0271 5.99C80.7777 5.76333 80.3981 5.65 79.8881 5.65C79.3894 5.65 79.0041 5.72367 78.7321 5.871C78.4714 6.01833 78.3411 6.19967 78.3411 6.415C78.3411 6.721 78.5224 6.94767 78.8851 7.095C79.2477 7.24233 79.8314 7.39533 80.6361 7.554C81.5767 7.74667 82.3474 7.95067 82.9481 8.166C83.5601 8.37 84.0927 8.71 84.5461 9.186C84.9994 9.662 85.2317 10.308 85.2431 11.124C85.2431 12.5067 84.7727 13.5323 83.8321 14.201C82.9027 14.8697 81.6561 15.204 80.0921 15.204C78.2674 15.204 76.8451 14.898 75.8251 14.286C74.8164 13.674 74.3121 12.5917 74.3121 11.039H77.8651C77.8651 11.6283 78.0181 12.025 78.3241 12.229C78.6301 12.4217 79.1061 12.518 79.7521 12.518C80.2281 12.518 80.6191 12.467 80.9251 12.365C81.2424 12.263 81.4011 12.0533 81.4011 11.736C81.4011 11.4527 81.2254 11.243 80.8741 11.107C80.5341 10.9597 79.9731 10.8067 79.1911 10.648C78.2391 10.444 77.4514 10.2343 76.8281 10.019C76.2047 9.79233 75.6607 9.424 75.1961 8.914C74.7314 8.404 74.4991 7.71267 74.4991 6.84C74.4991 5.55933 74.9921 4.61867 75.9781 4.018C76.9754 3.406 78.2334 3.1 79.7521 3.1Z" fill="#435191"/>
</svg>
