<svg width="14" height="15" viewBox="0 0 14 15" fill="none" xmlns="http://www.w3.org/2000/svg">
<path d="M13.4873 5.66807L9.06268 0.926822C8.51507 0.341815 7.77331 0.0133057 7.00001 0.0133057C6.22671 0.0133057 5.48495 0.341815 4.93734 0.926822L0.512757 5.66807C0.349672 5.84169 0.220373 6.04826 0.132355 6.27581C0.0443376 6.50337 -0.000647734 6.74738 7.04637e-06 6.9937V13.1293C7.04637e-06 13.6266 0.184382 14.1035 0.51257 14.4551C0.840759 14.8068 1.28588 15.0043 1.75001 15.0043H12.25C12.7141 15.0043 13.1593 14.8068 13.4874 14.4551C13.8156 14.1035 14 13.6266 14 13.1293V6.9937C14.0007 6.74738 13.9557 6.50337 13.8677 6.27581C13.7796 6.04826 13.6503 5.84169 13.4873 5.66807V5.66807ZM8.75001 13.7543H5.25001V11.2956C5.25001 10.7983 5.43438 10.3214 5.76257 9.96975C6.09076 9.61811 6.53588 9.42057 7.00001 9.42057C7.46414 9.42057 7.90926 9.61811 8.23745 9.96975C8.56563 10.3214 8.75001 10.7983 8.75001 11.2956V13.7543ZM12.8333 13.1293C12.8333 13.2951 12.7719 13.4541 12.6625 13.5713C12.5531 13.6885 12.4047 13.7543 12.25 13.7543H9.91668V11.2956C9.91668 10.4668 9.60938 9.67191 9.0624 9.08586C8.51542 8.49981 7.77356 8.17057 7.00001 8.17057C6.22646 8.17057 5.48459 8.49981 4.93761 9.08586C4.39063 9.67191 4.08334 10.4668 4.08334 11.2956V13.7543H1.75001C1.5953 13.7543 1.44692 13.6885 1.33753 13.5713C1.22813 13.4541 1.16667 13.2951 1.16667 13.1293V6.9937C1.16721 6.82806 1.22862 6.66931 1.33759 6.55182L5.76218 1.81245C6.091 1.46178 6.53606 1.26491 7.00001 1.26491C7.46395 1.26491 7.90902 1.46178 8.23784 1.81245L12.6624 6.5537C12.771 6.67073 12.8323 6.82871 12.8333 6.9937V13.1293Z" fill="#65657B"/>
</svg>
