<svg width="18" height="18" viewBox="0 0 18 18" fill="none" xmlns="http://www.w3.org/2000/svg">
<path d="M8.13772 1.72461C3.64216 1.72461 0 5.36677 0 9.86233C0 14.3553 3.64216 18 8.13772 18C12.6307 18 16.2754 14.3579 16.2754 9.86233H8.13772V1.72461Z" fill="#5864A2"/>
<path d="M14.3426 8.84387L17.4413 5.74524C17.2482 5.22965 17.0095 4.73945 16.7301 4.27466L12.1609 8.84387H14.3426Z" fill="#5864A2"/>
<path d="M15.9833 3.22305C15.6556 2.82429 15.2924 2.45855 14.9013 2.12329L9.15356 7.871V8.84376H10.36L15.9833 3.22305Z" fill="#5864A2"/>
<path d="M12.4198 0.624756L9.15356 3.89102V6.07276L13.865 1.36132C13.4104 1.07177 12.9278 0.825405 12.4198 0.624756Z" fill="#5864A2"/>
<path d="M9.15356 0V2.09285L11.0407 0.205729C10.4337 0.0711161 9.80377 0 9.15356 0Z" fill="#5864A2"/>
<path d="M18.0002 8.84375C18.0002 8.26466 17.9418 7.69827 17.8376 7.14966L16.1436 8.84375H18.0002Z" fill="#5864A2"/>
</svg>
