<svg width="20" height="20" viewBox="0 0 20 20" fill="none" xmlns="http://www.w3.org/2000/svg">
<path d="M8 5C8 6.65685 6.65685 8 5 8C3.34315 8 2 6.65685 2 5C2 3.34315 3.34315 2 5 2C6.65685 2 8 3.34315 8 5Z" fill="#77727C"/>
<path d="M8 16C8 17.6569 6.65685 19 5 19C3.34315 19 2 17.6569 2 16C2 14.3431 3.34315 13 5 13C6.65685 13 8 14.3431 8 16Z" fill="#77727C"/>
<path d="M19 5C19 6.65685 17.6569 8 16 8C14.3431 8 13 6.65685 13 5C13 3.34315 14.3431 2 16 2C17.6569 2 19 3.34315 19 5Z" fill="#77727C"/>
<path d="M3 4H17V6H3V4Z" fill="#77727C"/>
<path d="M3 15H17V17H3V15Z" fill="#77727C"/>
<path d="M6 4L6 16H4L4 4L6 4Z" fill="#77727C"/>
<path d="M17 4L17 16H15V4L17 4Z" fill="#77727C"/>
<path d="M19 16C19 17.6569 17.6569 19 16 19C14.3431 19 13 17.6569 13 16C13 14.3431 14.3431 13 16 13C17.6569 13 19 14.3431 19 16Z" fill="#77727C"/>
</svg>
