<svg width="18" height="18" viewBox="0 0 18 18" fill="none" xmlns="http://www.w3.org/2000/svg">
<path d="M10.3846 18H7.61539C7.43177 18 7.25568 17.9271 7.12585 17.7972C6.99602 17.6674 6.92308 17.4913 6.92308 17.3077V16.3108C6.92562 16.1212 6.87172 15.9352 6.76822 15.7763C6.66472 15.6175 6.51631 15.4931 6.34186 15.4188C6.16742 15.3446 5.97484 15.3239 5.78863 15.3595C5.60241 15.395 5.43098 15.4852 5.29615 15.6185L4.60385 16.3108C4.53949 16.3757 4.46292 16.4272 4.37855 16.4623C4.29419 16.4975 4.2037 16.5156 4.11231 16.5156C4.02091 16.5156 3.93043 16.4975 3.84606 16.4623C3.7617 16.4272 3.68513 16.3757 3.62077 16.3108L1.65462 14.3862C1.58973 14.3218 1.53822 14.2452 1.50308 14.1609C1.46793 14.0765 1.44983 13.986 1.44983 13.8946C1.44983 13.8032 1.46793 13.7127 1.50308 13.6284C1.53822 13.544 1.58973 13.4674 1.65462 13.4031L2.34692 12.7108C2.48019 12.5759 2.57034 12.4045 2.60589 12.2183C2.64144 12.0321 2.62078 11.8395 2.54655 11.6651C2.47232 11.4906 2.34787 11.3422 2.18904 11.2387C2.03021 11.1352 1.84418 11.0813 1.65462 11.0838H0.692308C0.508696 11.0838 0.332605 11.0109 0.202772 10.8811C0.0729393 10.7512 0 10.5752 0 10.3915V7.61539C0 7.43177 0.0729393 7.25568 0.202772 7.12585C0.332605 6.99602 0.508696 6.92308 0.692308 6.92308H1.68923C1.87879 6.92562 2.06483 6.87172 2.22366 6.76822C2.38249 6.66472 2.50694 6.51631 2.58117 6.34186C2.6554 6.16742 2.67605 5.97484 2.64051 5.78863C2.60496 5.60241 2.51481 5.43098 2.38154 5.29615L1.68923 4.60385C1.62434 4.53949 1.57284 4.46292 1.53769 4.37855C1.50254 4.29419 1.48445 4.2037 1.48445 4.11231C1.48445 4.02091 1.50254 3.93043 1.53769 3.84606C1.57284 3.7617 1.62434 3.68513 1.68923 3.62077L3.61385 1.65462C3.67821 1.58973 3.75478 1.53822 3.83914 1.50308C3.9235 1.46793 4.01399 1.44983 4.10538 1.44983C4.19678 1.44983 4.28727 1.46793 4.37163 1.50308C4.45599 1.53822 4.53256 1.58973 4.59692 1.65462L5.28923 2.34692C5.42406 2.48019 5.59549 2.57034 5.7817 2.60589C5.96792 2.64144 6.1605 2.62078 6.33494 2.54655C6.50938 2.47232 6.6578 2.34787 6.7613 2.18904C6.8648 2.03021 6.9187 1.84418 6.91615 1.65462V0.692308C6.91615 0.508696 6.98909 0.332605 7.11893 0.202772C7.24876 0.0729393 7.42485 0 7.60846 0H10.3777C10.5613 0 10.7374 0.0729393 10.8672 0.202772C10.9971 0.332605 11.07 0.508696 11.07 0.692308V1.68923C11.0675 1.87879 11.1214 2.06483 11.2249 2.22366C11.3284 2.38249 11.4768 2.50694 11.6512 2.58117C11.8257 2.6554 12.0182 2.67605 12.2045 2.64051C12.3907 2.60496 12.5621 2.51481 12.6969 2.38154L13.3892 1.68923C13.4536 1.62434 13.5302 1.57284 13.6145 1.53769C13.6989 1.50254 13.7894 1.48445 13.8808 1.48445C13.9722 1.48445 14.0627 1.50254 14.147 1.53769C14.2314 1.57284 14.3079 1.62434 14.3723 1.68923L16.3315 3.64846C16.3964 3.71282 16.4479 3.78939 16.4831 3.87375C16.5182 3.95812 16.5363 4.04861 16.5363 4.14C16.5363 4.23139 16.5182 4.32188 16.4831 4.40625C16.4479 4.49061 16.3964 4.56718 16.3315 4.63154L15.6392 5.32385C15.506 5.45867 15.4158 5.6301 15.3803 5.81632C15.3447 6.00253 15.3654 6.19512 15.4396 6.36956C15.5138 6.544 15.6383 6.69241 15.7971 6.79591C15.9559 6.89941 16.142 6.95332 16.3315 6.95077H17.3077C17.4913 6.95077 17.6674 7.02371 17.7972 7.15354C17.9271 7.28337 18 7.45947 18 7.64308V10.4123C18 10.5959 17.9271 10.772 17.7972 10.9018C17.6674 11.0317 17.4913 11.1046 17.3077 11.1046H16.3108C16.1212 11.1021 15.9352 11.156 15.7763 11.2595C15.6175 11.363 15.4931 11.5114 15.4188 11.6858C15.3446 11.8603 15.3239 12.0529 15.3595 12.2391C15.395 12.4253 15.4852 12.5967 15.6185 12.7315L16.3108 13.4238C16.3757 13.4882 16.4272 13.5648 16.4623 13.6491C16.4975 13.7335 16.5156 13.824 16.5156 13.9154C16.5156 14.0068 16.4975 14.0973 16.4623 14.1816C16.4272 14.266 16.3757 14.3426 16.3108 14.4069L14.3515 16.3662C14.2872 16.431 14.2106 16.4825 14.1262 16.5177C14.0419 16.5528 13.9514 16.5709 13.86 16.5709C13.7686 16.5709 13.6781 16.5528 13.5938 16.5177C13.5094 16.4825 13.4328 16.431 13.3685 16.3662L12.6762 15.6738C12.5413 15.5406 12.3699 15.4504 12.1837 15.4149C11.9975 15.3793 11.8049 15.4 11.6304 15.4742C11.456 15.5484 11.3076 15.6729 11.2041 15.8317C11.1006 15.9906 11.0467 16.1766 11.0492 16.3662V17.3077C11.0494 17.4866 10.9802 17.6586 10.8563 17.7877C10.7324 17.9168 10.5634 17.9928 10.3846 18ZM8.30769 16.6154H9.69231V16.3108C9.69174 15.8485 9.82852 15.3965 10.0853 15.0121C10.342 14.6277 10.7072 14.3282 11.1344 14.1517C11.5617 13.9751 12.0317 13.9295 12.4849 14.0205C12.9381 14.1116 13.3541 14.3352 13.68 14.6631L13.8946 14.8777L14.8777 13.8946L14.6631 13.68C14.3352 13.3541 14.1116 12.9381 14.0205 12.4849C13.9295 12.0317 13.9751 11.5617 14.1517 11.1344C14.3282 10.7072 14.6277 10.342 15.0121 10.0853C15.3965 9.82852 15.8485 9.69174 16.3108 9.69231H16.6154V8.30769H16.3108C15.8485 8.30826 15.3965 8.17148 15.0121 7.91473C14.6277 7.65797 14.3282 7.29281 14.1517 6.86557C13.9751 6.43833 13.9295 5.96829 14.0205 5.51507C14.1116 5.06186 14.3352 4.6459 14.6631 4.32L14.8777 4.10538L13.8946 3.12231L13.68 3.33692C13.3541 3.66477 12.9381 3.8884 12.4849 3.97946C12.0317 4.07051 11.5617 4.02488 11.1344 3.84834C10.7072 3.67181 10.342 3.37234 10.0853 2.98793C9.82852 2.60352 9.69174 2.1515 9.69231 1.68923V1.38462H8.30769V1.68923C8.30826 2.1515 8.17148 2.60352 7.91473 2.98793C7.65797 3.37234 7.29281 3.67181 6.86557 3.84834C6.43833 4.02488 5.96829 4.07051 5.51507 3.97946C5.06186 3.8884 4.6459 3.66477 4.32 3.33692L4.10538 3.12231L3.12231 4.10538L3.33692 4.32C3.66477 4.6459 3.8884 5.06186 3.97946 5.51507C4.07051 5.96829 4.02488 6.43833 3.84834 6.86557C3.67181 7.29281 3.37234 7.65797 2.98793 7.91473C2.60352 8.17148 2.1515 8.30826 1.68923 8.30769H1.38462V9.69231H1.68923C2.1515 9.69174 2.60352 9.82852 2.98793 10.0853C3.37234 10.342 3.67181 10.7072 3.84834 11.1344C4.02488 11.5617 4.07051 12.0317 3.97946 12.4849C3.8884 12.9381 3.66477 13.3541 3.33692 13.68L3.12231 13.8946L4.10538 14.8777L4.32 14.6631C4.6459 14.3352 5.06186 14.1116 5.51507 14.0205C5.96829 13.9295 6.43833 13.9751 6.86557 14.1517C7.29281 14.3282 7.65797 14.6277 7.91473 15.0121C8.17148 15.3965 8.30826 15.8485 8.30769 16.3108V16.6154Z" fill="#5864A2"/>
<path d="M9.00011 12.4615C8.31549 12.4615 7.64623 12.2585 7.07699 11.8782C6.50774 11.4978 6.06407 10.9572 5.80207 10.3247C5.54007 9.69215 5.47152 8.99615 5.60509 8.32468C5.73865 7.65321 6.06833 7.03642 6.55244 6.55232C7.03654 6.06821 7.65333 5.73853 8.3248 5.60497C8.99627 5.4714 9.69228 5.53995 10.3248 5.80195C10.9573 6.06394 11.4979 6.50762 11.8783 7.07686C12.2586 7.64611 12.4617 8.31537 12.4617 8.99999C12.4617 9.91805 12.097 10.7985 11.4478 11.4477C10.7986 12.0968 9.91817 12.4615 9.00011 12.4615ZM9.00011 6.92307C8.58934 6.92307 8.18779 7.04488 7.84624 7.27309C7.50469 7.50131 7.23848 7.82568 7.08129 8.20519C6.92409 8.5847 6.88296 9.0023 6.9631 9.40518C7.04324 9.80806 7.24104 10.1781 7.53151 10.4686C7.82197 10.7591 8.19204 10.9569 8.59493 11.037C8.99781 11.1171 9.41541 11.076 9.79492 10.9188C10.1744 10.7616 10.4988 10.4954 10.727 10.1539C10.9552 9.81232 11.077 9.41077 11.077 8.99999C11.077 8.44916 10.8582 7.92088 10.4687 7.53139C10.0792 7.14189 9.55095 6.92307 9.00011 6.92307Z" fill="#5864A2"/>
</svg>
