<svg width="17" height="17" viewBox="0 0 17 17" fill="none" xmlns="http://www.w3.org/2000/svg">
<path fill-rule="evenodd" clip-rule="evenodd" d="M1.94892 1.94892C2.84751 1.05032 4.13447 0.666748 5.66675 0.666748H11.3334C12.8657 0.666748 14.1527 1.05032 15.0512 1.94892C15.9498 2.84751 16.3334 4.13447 16.3334 5.66675V11.3334C16.3334 12.8657 15.9498 14.1527 15.0512 15.0512C14.1527 15.9498 12.8657 16.3334 11.3334 16.3334H2.12508C1.32128 16.3334 0.666748 15.6789 0.666748 14.8751V5.66675C0.666748 4.13447 1.05032 2.84751 1.94892 1.94892ZM3.00958 3.00958C2.4915 3.52765 2.16675 4.36569 2.16675 5.66675V14.8334H11.3334C12.6345 14.8334 13.4725 14.5087 13.9906 13.9906C14.5087 13.4725 14.8334 12.6345 14.8334 11.3334V5.66675C14.8334 4.36569 14.5087 3.52765 13.9906 3.00958C13.4725 2.4915 12.6345 2.16675 11.3334 2.16675H5.66675C4.36569 2.16675 3.52765 2.4915 3.00958 3.00958Z" fill="#6B76AD"/>
<path fill-rule="evenodd" clip-rule="evenodd" d="M4.20842 6.72925C4.20842 6.31503 4.5442 5.97925 4.95842 5.97925H12.0417C12.456 5.97925 12.7917 6.31503 12.7917 6.72925C12.7917 7.14346 12.456 7.47925 12.0417 7.47925H4.95842C4.5442 7.47925 4.20842 7.14346 4.20842 6.72925Z" fill="#6B76AD"/>
<path fill-rule="evenodd" clip-rule="evenodd" d="M4.20842 10.2709C4.20842 9.8567 4.5442 9.52091 4.95842 9.52091H9.91675C10.331 9.52091 10.6667 9.8567 10.6667 10.2709C10.6667 10.6851 10.331 11.0209 9.91675 11.0209H4.95842C4.5442 11.0209 4.20842 10.6851 4.20842 10.2709Z" fill="#6B76AD"/>
</svg>
