<svg width="23" height="17" viewBox="0 0 23 17" fill="none" xmlns="http://www.w3.org/2000/svg">
<path d="M22.9151 6.61632C22.8245 6.48896 22.6815 6.41351 22.5242 6.41351L18.4626 6.41817L17.1583 6.27029L17.6127 5.06926C17.6557 4.95134 17.6509 4.82401 17.5984 4.7061C17.546 4.59287 17.4506 4.50798 17.3314 4.46082L6.61215 0.494127C6.36421 0.40451 6.09241 0.527147 5.99704 0.772421L3.32678 7.84263C3.23141 8.08319 3.36016 8.35676 3.60332 8.44637L10.2865 10.9195V13.1061H4.0897V12.4508C4.0897 11.2527 3.10265 10.2764 1.8915 10.2764H0.275024V16.8797H1.8915C3.10265 16.8797 4.0897 15.9034 4.0897 14.7053V14.0494H11.2402V11.2724L14.3226 12.413C14.3798 12.4319 14.437 12.4461 14.4895 12.4461C14.685 12.4461 14.8662 12.3281 14.9377 12.1395L15.6705 10.2026L17.2885 10.03L20.2067 12.5451C20.2925 12.6206 20.407 12.6583 20.5167 12.6583C20.5596 12.6583 20.5977 12.6536 20.6359 12.6442C20.7885 12.6064 20.9124 12.4979 20.9649 12.3517L22.9676 7.05024C23.0248 6.90875 23.0057 6.74365 22.9151 6.61632ZM9.77572 4.31979C9.70121 4.50403 9.52194 4.61642 9.33288 4.61642C9.27374 4.61642 9.21367 4.60537 9.15593 4.58257L7.96384 4.1109C7.71937 4.01395 7.60016 3.73966 7.69795 3.49761C7.79574 3.25579 8.07513 3.13856 8.31774 3.23483L9.50983 3.70649C9.7543 3.80345 9.87351 4.07774 9.77572 4.31979Z" fill="#5864A2"/>
</svg>
