<svg width="21" height="21" viewBox="0 0 21 21" fill="none" xmlns="http://www.w3.org/2000/svg">
<g clip-path="url(#clip0_84_1372)">
<path d="M3.50003 17.5V12.25C3.50003 10.3935 4.23753 8.61301 5.55028 7.30025C6.86304 5.9875 8.64351 5.25 10.5 5.25C12.3565 5.25 14.137 5.9875 15.4498 7.30025C16.7625 8.61301 17.5 10.3935 17.5 12.25V17.5H18.375V19.25H2.62503V17.5H3.50003ZM5.25003 17.5H15.75V12.25C15.75 10.8576 15.1969 9.52225 14.2123 8.53769C13.2278 7.55312 11.8924 7 10.5 7C9.10764 7 7.77229 7.55312 6.78772 8.53769C5.80315 9.52225 5.25003 10.8576 5.25003 12.25V17.5ZM9.62503 1.75H11.375V4.375H9.62503V1.75ZM17.3058 4.207L18.543 5.44425L16.688 7.30012L15.4499 6.06287L17.3058 4.207ZM2.45703 5.44425L3.69428 4.207L5.55016 6.062L4.31378 7.301L2.45703 5.44425ZM6.12503 12.25C6.12503 11.0897 6.58597 9.97688 7.40644 9.15641C8.22691 8.33594 9.33971 7.875 10.5 7.875V9.625C9.80384 9.625 9.13616 9.90156 8.64387 10.3938C8.15159 10.8861 7.87503 11.5538 7.87503 12.25H6.12503Z" fill="#5864A2"/>
</g>
<defs>
<clipPath id="clip0_84_1372">
<rect width="21" height="21" fill="white"/>
</clipPath>
</defs>
</svg>
