<svg width="20" height="20" viewBox="0 0 20 20" fill="none" xmlns="http://www.w3.org/2000/svg">
<g clip-path="url(#clip0_256_4403)">
<path d="M-4.18072e-07 18L0 7.00098L8.94737 7.00098L20 7.00098L20 18L-4.18072e-07 18ZM2.49242 9.75012L2.49242 15.1517L17.5076 15.1517L17.5076 9.75012L2.49242 9.75012Z" fill="#77727C"/>
<path d="M15.124 12.8057L15.124 7.00098L13.1579 7.00098L13.1579 12.8057L15.124 12.8057Z" fill="#77727C"/>
<path d="M11.0526 12.8057L11.0526 7.00098L8.94737 7.00098L8.94737 12.8057L11.0526 12.8057Z" fill="#77727C"/>
<path d="M6.8421 12.8051L6.8421 7.54985L4.73684 7.54985L4.73684 12.8051L6.8421 12.8051Z" fill="#77727C"/>
<path d="M20 4.50002L17.75 6.66509V2.33496L20 4.50002Z" fill="#77727C"/>
<path d="M0 4.50002L2.25 2.33496V6.66509L0 4.50002Z" fill="#77727C"/>
<path fill-rule="evenodd" clip-rule="evenodd" d="M18 5.00002H1V3.80002H18V5.00002Z" fill="#77727C"/>
</g>
<defs>
<clipPath id="clip0_256_4403">
<rect width="20" height="20" fill="white"/>
</clipPath>
</defs>
</svg>
