<svg width="34" height="16" viewBox="0 0 34 16" fill="none" xmlns="http://www.w3.org/2000/svg">
<g clip-path="url(#clip0_25_123)">
<path d="M33.5 6.8C33.2 7 33.1 7.1 32.9 7.2C31.8 7.7 30.8 8.3 29.9 9C29.2 9.5 28.4 9.8 27.6 9.7C26.9 9.6 26.1 9.7 25.5 9.9C23.8 10.4 22.2 10.6 20.3 10.2C20.7 10.9 21.2 11.2 21.9 11.2C22.4 11.2 23 11.2 23.5 11.3C24.3 11.4 24.9 11.7 25.3 12.4C25.4 12.5 25.5 12.6 25.7 12.7C27 12.9 28.3 13.4 29.5 13.8C30.2 14 30.9 14.2 31.6 14.4C31.7 14.4 31.8 14.5 32 14.5C32 14.6 32 14.6 32 14.6C31 14.7 30 14.9 29 15C28.7 15 28.4 15 28.1 15C27.6 14.9 27.2 14.8 26.9 14.4C26.4 13.9 25.9 13.4 25.3 12.9C25.2 12.8 25 12.8 24.9 12.7C24.5 12.7 24 12.6 23.6 12.6C22.6 12.5 21.7 12.1 21.1 11.3C20.8 11 20.6 10.7 20.4 10.4C19.5 9.5 18.5 9.2 17.3 9.4C17.1 9.4 16.9 9.5 16.7 9.6C15.6 10.2 14.5 10.4 13.3 10.6C11.3 10.9 9.3 11 7.4 11.6C7.2 11.7 7 11.7 6.8 11.8C7.7 12.5 8.5 13 9.6 12.7C9.9 12.6 10.3 12.5 10.6 12.4C11.8 12 13 12 14.2 12.3C14.5 12.4 14.8 12.4 15.2 12.5C14.2 13 13.2 13.5 12.3 14C11.8 14.3 11.2 14.4 10.6 14.4C9.8 14.4 9.2 14.2 8.6 13.6C8.1 13.1 7.9 12.9 7.2 12.5L6.8 12.2C6.2 11.7 5.7 11.9 5.2 12.1C4.2 12.5 3.2 12.9 2.1 13.3C1.5 14 0.8 14.2 0 14.1C0.3 14 0.4 13.9 0.6 13.8C1.3 13.6 1.9 13.4 2.6 13.2C3.4 12.9 4.2 12.6 4.9 12.3C5.1 12.2 5.4 12 5.5 11.8C6.4 10.7 7.1 9.4 7.6 8.1C8 7.2 8.6 6.5 9.4 6C9.9 5.7 10.4 5.5 10.9 5.5C11.1 5.5 11.3 5.5 11.4 5.2C11.8 4.3 12.6 3.7 13.3 3.1C14 2.6 14.5 1.8 14.7 1C14.8 0.7 15 0.3 15.2 0C15.4 1 15.6 1.9 15.7 2.9C15.8 3.8 15.5 4.6 14.9 5.3C14.8 5.5 14.6 5.7 14.5 5.9C15.7 6.4 16.7 6.1 17.9 6C18 6 18.2 5.9 18.3 5.9C18.2 6 18 6.3 17.9 6.4C16.9 7.1 15.8 7.7 14.6 7.9C14.2 8 13.8 7.9 13.3 7.8C13.2 8 13 8.3 12.9 8.5C12.6 9.5 11.8 10 11 10.5C10.7 10.6 10.4 10.8 10.2 11C10.3 11 10.4 11 10.5 11C11.7 10.8 12.9 10.7 14 10.5C14.8 10.4 15.7 10.1 16.4 9.7C16.9 9.4 17.4 9.2 17.9 9.2C18.6 9.1 19.2 9.4 19.8 9.7C20.6 10.1 21.6 9.9 22.2 9.3C22.6 8.9 22.9 8.4 23 7.9C23.3 6.7 24.2 6 25.4 5.6C26.2 5.3 26.7 5.1 27.4 4.5C27.5 4.5 27.7 4.3 27.9 4.3C27.8 4.4 27.7 4.6 27.6 4.7C27.3 5.2 27.1 5.6 27 6C26.7 7.1 26 7.8 25 8.1C24.4 8.3 23.8 8.5 23.2 8.8C22.9 8.9 22.7 9.1 22.5 9.2C22.1 9.5 21.8 9.8 21.5 10.1C21.9 10.2 22.4 10.2 22.8 10.2C23.9 10.1 25 10 26 9.5C26.4 9.3 26.7 9.1 27 8.9C27.5 8.6 28 8.2 28.5 7.9C29.4 7.3 30.4 7.1 31.5 7C32.1 6.9 32.6 6.9 33.2 6.8C33.2 6.7 33.2 6.8 33.5 6.8ZM5.6 12C5.8 12 5.9 12 6 12C6.9 11.8 7.8 11.6 8.6 11.3C9.4 11 9.9 10.5 10.1 9.6C10.2 8.8 10.3 8 10.5 7.1C9.1 6.9 8.4 7.4 7.8 8.4C7.2 9.5 6.6 10.6 5.8 11.6C5.8 11.7 5.7 11.8 5.6 12ZM11.6 5.5C12.4 5.6 13.1 5.7 13.9 5.8C14 5.8 14.2 5.8 14.3 5.7C14.8 5.2 15.2 4.6 15.4 3.9C15.8 2.8 15.3 1.8 15.1 0.8C15 1 14.9 1.1 14.9 1.3C14.7 1.8 14.5 2.3 14.1 2.7C13.7 3.1 13.2 3.6 12.8 4C12.3 4.4 11.9 4.9 11.6 5.5ZM8.3 13.4C9.1 14.4 10.1 14.7 11.3 14.4C12 14.2 12.7 13.9 13.4 13.5C13.7 13.4 13.9 13.2 14.1 13.1C13.1 12.8 12.1 12.7 11 12.9C10.1 13.1 9.3 13.5 8.3 13.4ZM27 5C26.2 5.3 25.5 5.7 24.8 6C23.7 6.5 23.3 7.4 23 8.6C23.9 8.2 24.7 7.9 25.5 7.5C26 7.3 26.3 6.9 26.5 6.4C26.7 6 26.8 5.5 27 5ZM10.9 7C10.5 8.2 10.7 9.5 10 10.6C11.5 10.1 12.3 9 12.9 7.7C12.3 7.5 11.6 7.3 10.9 7ZM26.6 9.3C27.1 9.3 27.5 9.3 28 9.2C28.8 9.2 29.4 9 30 8.5C30.4 8.2 30.8 7.9 31.3 7.6C31.5 7.4 31.8 7.3 32 7.2C29.9 7.1 28.3 8.1 26.6 9.3ZM25.7 13.1C25.7 13.2 25.7 13.2 25.8 13.2C26.3 13.7 26.8 14.1 27.3 14.6C27.4 14.6 27.4 14.7 27.5 14.7C28.2 15 29.8 15 30.6 14.6C29.1 13.9 26.6 13.1 25.7 13.1ZM13.4 7.6C15 7.8 16.1 7.1 17.3 6.3C16.3 6.5 15.3 6.3 14.3 6.1C13.9 6.5 13.6 7 13.4 7.6ZM13.9 6.1C13.2 6 12.5 5.9 11.9 5.8C11.7 5.8 11.4 5.7 11.3 6C11.2 6.3 11.1 6.5 11 6.7C11.7 6.9 12.4 7.1 13.1 7.3C13.3 7 13.5 6.6 13.9 6.1ZM21.4 11.6C22.5 12.7 23.7 12.7 25.1 12.7C24.9 12.1 24.4 11.9 23.9 11.7C23 11.5 22.2 11.5 21.4 11.6ZM8.8 6.9C9.2 6.8 9.4 6.8 9.7 6.8C10 6.8 10.3 6.8 10.6 6.8C10.7 6.5 10.8 6.3 11 6C10.3 5.9 9.3 6.4 8.8 6.9Z" fill="#C5A065"/>
<path d="M20.9 5.8C21.4 5.5 21.1 5.7 21.5 5.6C21.6 5.6 21.7 5.6 21.8 5.6C21.8 5.6 22.1 5.8 21.8 6.3C21.6 6.7 21.5 6.4 21.2 6.5C21 6.6 20.9 6.5 20.5 6.4C20.4 6.5 20.3 6.7 20.2 6.9C20.3 6.9 20.3 6.9 20.4 6.8C20.6 6.7 20.6 6.8 20.7 6.7C20.9 6.6 21.2 6.8 21.2 6.8C21.3 6.8 21.4 7 21.2 7.3C20.8 7.9 20.3 7.7 20 7.5C19.9 7.5 19.9 7.4 19.8 7.3C19.7 7.4 19.6 7.5 19.5 7.7C19.5 7.7 19.5 7.8 19.4 7.8C19.7 7.8 19.6 7.8 20.2 8C20.2 8 20.3 8 20.3 8.1C20.3 8.2 20.3 8.3 20.2 8.4C20.1 8.6 19.7 8.5 19.4 8.4C19.2 8.3 19 8.4 19 8.4C18.8 8.4 19 8.7 17.2 9.5C17.1 9.4 17.1 9.4 17.1 9.4C17.2 9.1 18.3 8.8 18.4 8.6C18.4 8.5 18.4 8.4 18.4 8.4C18.3 8.3 18.3 8.3 18.4 7.6C18.4 7.5 18.4 7.4 18.5 7.4C18.6 7.2 18.9 7.3 19.1 7.4C19.2 7.5 19.2 7.5 19.2 7.8V7.9C19.3 7.8 19.5 7.5 19.6 7.3V7.2C19.4 7.3 19.1 7.2 19.1 7.1C19 7 19 6.9 18.9 6.8C18.8 6.6 18.9 6.4 19 6.3C19 6.2 19.3 6.1 19.5 6.1C19.5 6.1 19.5 6.1 19.6 6.1V6C19.6 5.9 19.5 5.9 19.6 5.8C19.6 5.6 19.6 5.5 19.7 5.4C19.9 5.1 20 5.1 20.1 5.2C20.2 5.2 20.2 5.3 20.2 5.3C20.2 5.3 20.2 5.3 20.3 5.3C20.6 5.5 20.5 5.8 20.5 5.9C20.5 5.9 20.6 5.9 20.6 5.8C20.6 5.8 20.8 5.4 20.9 5.2C20.8 5.2 20.8 5.2 20.7 5.1C20.4 4.9 20.4 4.7 20.4 4.3C20.4 4.2 20.4 4.1 20.5 4C20.6 3.8 20.6 3.8 20.9 3.9C21.1 4 21 4.1 21.1 4.2C21.3 4.4 21.2 4.6 21.2 4.6C21.3 4.3 21.5 4 21.6 3.7C21.1 3.8 21.1 3.8 20.9 3.7C20.7 3.6 20.7 3.6 20.6 3.5C20.5 3.2 20.6 3.1 20.6 3C20.6 2.9 20.7 2.9 20.8 2.8C20.9 2.7 21 2.8 21.1 2.8C21.2 2.8 21.3 2.8 21.3 2.9C21.4 2.9 21.4 3 21.5 3.1C21.5 3.2 21.5 3.1 21.8 3.4C21.9 3.2 22 3.1 22 2.9C21.5 2.9 21.4 2.9 21.4 2.9C21.2 2.8 21.1 2.3 21.2 2.1C21.2 2.1 21.3 1.9 21.4 1.9C21.5 1.9 21.5 1.9 21.6 1.9C21.6 1.9 21.6 1.9 21.7 2C21.7 2 21.8 2 21.9 2.1C22.1 2.2 22.2 2.5 22.2 2.6C22.3 2.5 22.3 2.4 22.3 2.3C22.3 2.1 22.3 2 22.4 1.9C22.4 1.9 22.5 1.8 22.8 1.5C22.9 1.4 23 1.4 23.3 1.3C23.4 1.3 23.4 1.3 23.5 1.3C23.5 1.3 23.7 1.4 23.6 1.5C23.5 1.6 23.5 1.8 23.4 1.9C23.3 2 23.2 2.2 23.1 2.3C23.2 2.3 23.2 2.3 23.3 2.4C23.3 2.4 23.4 2.4 23.4 2.5C23.4 2.8 23.4 2.8 23.4 2.9C23.2 2.8 22.8 3 22.7 3C22.4 3.1 22.3 3 22.1 2.9C22.1 3.1 22 3.2 22 3.4C22.4 3.1 22.3 3.5 22.8 3.2C23 3.1 23.1 3.2 23.1 3.3C23.2 3.3 23.2 3.4 23.2 3.6C23.2 3.9 23 3.9 22.9 4.2C22.8 4.4 22.6 4.4 22.1 4.1C22 4.1 22 4 21.9 3.9C21.8 4.1 21.7 4.3 21.6 4.5C21.7 4.5 21.8 4.4 22 4.4C22.1 4.4 22.2 4.4 22.3 4.5C22.4 4.6 22.5 4.6 22.5 4.8C22.5 4.8 22.5 5 22.5 5.2L22.4 5.3C22.1 5.5 22.3 5.4 21.7 5.4C21.6 5.4 21.6 5.5 21.4 5.4L21.3 5.3C21 5.4 20.9 5.6 20.9 5.8ZM22 3.6C22.1 3.9 22.1 4 22.2 4.1C22.4 4.2 23.3 3.9 22.9 3.3C22.2 3.7 22.6 3.1 22 3.6ZM21.3 6.4C21.5 6.4 21.6 6.3 21.6 6.2C21.7 6.1 21.7 6 21.7 5.9C21.7 5.8 21.7 5.8 21.7 5.7C21.2 5.8 21.2 5.8 21.2 5.8C21.1 5.8 21.1 5.9 21 5.9C20.9 5.9 20.8 6.1 20.8 6.1C20.8 6.1 20.8 6.4 20.8 6.5C21.1 6.5 20.9 6.3 21.3 6.4ZM20.7 6.8C20.5 7 20.4 6.9 20.3 7C20.3 7.4 20.2 7.5 20.3 7.6C20.3 7.6 20.6 7.7 20.7 7.6C20.7 7.6 20.9 7.5 21 7.3C21.1 7.2 21.1 7 21.1 6.9C20.8 6.8 20.8 6.8 20.7 6.8ZM22.2 5C22.2 4.9 22.2 4.9 22.2 4.8C22.2 4.7 22.2 4.7 22.1 4.6C22 4.6 21.6 4.5 21.5 4.7L21.3 5.1V5.2C21.7 5.2 22 5.3 22.2 5ZM21 3.8C21.1 3.8 21.1 3.8 21.1 3.8C21.6 3.7 21.4 3.7 21.7 3.6H21.8C21.8 3.5 21.5 3.3 21.4 3.2L21.3 3.1C21.3 3.1 21.1 3 21.1 3.1C21 3.1 21 3.1 20.9 3.2C20.8 3.3 20.8 3.6 21 3.8ZM19.3 8.2L19.2 8.3C19.4 8.3 19.5 8.3 19.7 8.4C19.7 8.4 20 8.6 20.2 8.3C20.3 8.2 20.3 8.1 20.3 8C19.8 7.8 19.9 7.8 19.3 8.2ZM19.9 5.8C19.8 6 19.9 6.2 20 6.2C20.1 6.3 20.4 6.1 20.5 6.1C20.5 6.1 20.6 5.6 20.3 5.4C20.3 5.4 20.2 5.4 20.2 5.3C20.1 5.4 20 5.5 20 5.6C20 5.6 20 5.6 19.9 5.8ZM21.8 2.1L21.7 2C21.7 2 21.6 2 21.5 2L21.4 2.1C21.3 2.3 21.3 2.8 21.5 2.8C21.6 2.8 21.6 2.8 22 2.8C22.1 2.4 21.9 2.3 21.8 2.1ZM20 6.9C20 6.8 19.9 6.7 19.9 6.4L19.8 6.3H19.7C19.5 6.4 19.5 6.4 19.4 6.4C19.2 6.7 19.3 6.8 19.4 7.2C19.7 7.1 20 6.9 20 6.9ZM20.7 4.9C20.7 5 20.8 5.1 20.8 5.1C20.9 5.2 21 5.1 21 5.1C21.1 5 21.1 5 21 4.5C21 4.4 21 4.3 20.9 4.3C20.9 4.3 20.8 4.2 20.8 4.1L20.7 4.2C20.7 4.3 20.7 4.4 20.7 4.9ZM23.1 1.7C23.2 1.5 23.3 1.3 23.3 1.3C23 1.3 23 1.3 22.5 1.8C22.5 1.8 22.5 1.8 22.4 1.9C22.4 2 22.3 2.1 22.3 2.2C22.6 2.2 22.8 2.2 23.1 1.7ZM22.4 2.4C22.4 2.5 22.4 2.5 22.4 2.5C22.5 2.8 22.4 3.1 22.8 2.8C23 2.7 23 2.7 23.1 2.6C23.1 2.5 23.1 2.5 23.2 2.2C22.6 2.4 22.8 2.4 22.4 2.4ZM19.1 7.5C19.1 7.4 19.1 7.4 19.1 7.5C19 7.4 18.9 7.4 18.8 7.5C18.7 7.6 18.8 7.8 18.7 8.1C18.7 8.2 18.7 8.3 18.7 8.3C18.7 8.4 18.7 8.4 18.8 8.5L18.9 8.4C18.9 8.3 19 8.2 19 8.1C19.2 7.8 19.2 7.8 19.1 7.5ZM20.2 6.6C20.2 6.5 20.3 6.5 20.3 6.4C20.3 6.3 20.4 6.3 20.4 6.2C20.3 6.2 20.2 6.2 20.1 6.2C20.2 6.4 20.2 6.4 20.2 6.6Z" fill="#C5A065"/>
<path d="M16.5 11.4C16.5 11.5 16.6 11.6 16.7 11.7C16.9 11.9 17.2 12.1 17.4 12.4C17.5 12.5 17.6 12.6 17.7 12.8C17.8 13.3 18.1 13.6 18.4 14C19 14.7 19.8 14.9 20.7 15C20.4 14.6 20.2 14.2 19.9 13.7C19.7 13.4 19.6 13.2 19.3 13.1C19 13 18.6 12.8 18.2 12.7C17.9 12.6 17.7 12.4 17.5 12.1C17.8 12.1 18 12.2 18.3 12.2C18.6 12.2 18.8 12.2 19.1 12.2C19.3 12.2 19.6 12.3 19.8 12.1C19.6 12 19.4 11.9 19.2 11.8C18.9 11.6 18.6 11.5 18.2 11.5C17.9 11.5 17.5 11.4 17.2 11.4C17 11.4 16.9 11.3 16.7 11.2C16.2 11 15.8 10.7 15.3 10.5C15.2 10.5 15.1 10.5 14.9 10.5H14.8C15 10.6 15.1 10.6 15.3 10.7C15.5 10.8 15.7 11 15.8 11.2C15.8 11.4 15.9 11.6 15.9 11.8C15.9 12.2 15.8 12.5 15.7 12.9C15.6 13.4 15.9 14 16.2 14.3C16.2 14.2 16.2 14.1 16.2 14C16.3 13.7 16.3 13.3 16.4 13C16.6 12.5 16.6 12.1 16.3 11.6C16.2 11.5 16.1 11.3 16 11.2C16.1 11.1 16.4 11.2 16.5 11.4Z" fill="#C5A065"/>
<path d="M26.1 9.6C26.8 9.9 27.5 10.2 28.2 10.4C28.4 10.4 28.5 10.4 28.7 10.4C28.9 10.3 29.1 10.3 29.3 10.2C29.5 10.2 29.7 10.1 29.9 9.9C30 9.8 30.1 9.7 30.2 9.6C30.3 9.5 30.4 9.4 30.5 9.4C30.8 9.3 31.1 9.4 31.2 9.7C31.3 9.9 31.3 10 31.1 10.2C30.9 10.3 30.7 10.4 30.5 10.4C30.3 10.4 30.2 10.4 30 10.4C29.8 10.4 29.5 10.4 29.3 10.4C29.1 10.4 28.9 10.5 28.6 10.6C29 10.7 29.4 10.8 29.9 10.9C30.4 10.9 31 10.9 31.5 11C31.7 11 31.9 11 32.1 10.9C32.4 10.8 32.6 10.7 32.9 10.7C33.2 10.7 33.4 10.9 33.4 11.1C33.4 11.3 33.3 11.5 33 11.6C32.6 11.7 32.2 11.6 31.9 11.4C31.6 11.1 31.3 11.1 30.9 11.1C30.3 11.2 29.7 11.1 29.2 11C29.1 11 29 11 29 11C29.1 11.1 29.2 11.3 29.3 11.4C29.4 11.6 29.6 11.7 29.8 11.8H29.9C30.2 11.8 30.3 11.9 30.5 12.2C30.6 12.4 30.6 12.5 30.4 12.6C30.3 12.7 30.1 12.7 30 12.7C29.8 12.7 29.7 12.6 29.5 12.4C29.3 12.2 29.2 12 29.1 11.7C29 11.3 28.8 11.1 28.5 11C28.3 10.9 28 10.8 27.8 10.8C27.3 10.2 26.7 10 26.1 9.6C26.1 9.7 26.1 9.7 26.1 9.6Z" fill="#C5A065"/>
<path d="M5.09999 11.5C5.29999 11.1 5.29999 10.6 4.99999 10.2C4.79999 10 4.79999 9.6 4.69999 9.3C4.69999 9.2 4.69999 9.1 4.69999 9C4.39999 9.3 4.19999 9.9 4.39999 10.4C4.49999 10.8 4.59999 11.1 4.69999 11.4C4.69999 11.6 4.69999 11.8 4.69999 12C4.69999 12.2 4.49999 12.4 4.29999 12.5C4.09999 12.6 3.99999 12.7 3.79999 12.7C3.79999 12.7 3.79999 12.7 3.89999 12.7C3.99999 12.7 4.19999 12.7 4.29999 12.7C4.79999 12.3 4.99999 11.7 5.09999 11.5Z" fill="#C5A065"/>
</g>
<defs>
<clipPath id="clip0_25_123">
<rect width="33.5" height="15.2" fill="white"/>
</clipPath>
</defs>
</svg>
