<svg width="20" height="20" viewBox="0 0 20 20" fill="none" xmlns="http://www.w3.org/2000/svg">
<g clip-path="url(#clip0_33_1830)">
<path d="M13.3557 16.7707C13.2134 16.7707 13.0474 16.7233 12.9288 16.6047C12.6917 16.3675 12.6917 15.9881 12.9288 15.7747L15.751 12.9525C15.9881 12.7154 16.3676 12.7154 16.581 12.9525C16.8182 13.1897 16.8182 13.5691 16.581 13.7826L13.7826 16.581C13.664 16.6996 13.5217 16.7707 13.3557 16.7707Z" fill="#5864A2"/>
<path d="M4.10447 1.87693L4.10376 1.87675L4.10225 1.88878C4.07546 2.10314 4.12873 2.32559 4.29678 2.49364L6.52603 4.72288C7.00871 5.20557 7.00871 6.01972 6.52603 6.50241C6.28421 6.74422 5.95405 6.87628 5.6244 6.87628C5.27197 6.87628 4.96525 6.74487 4.72278 6.50241L2.49658 4.27621C2.35256 4.10648 2.10165 4.02465 1.87683 4.08085C1.66419 4.13401 1.4673 4.26987 1.38144 4.49618C0.417739 6.7391 0.924775 9.27153 2.63632 10.9834C3.74666 12.1176 5.24292 12.7206 6.81018 12.7206C7.29823 12.7206 7.7852 12.6535 8.24967 12.5414L14.613 18.9047C14.7548 19.0466 14.9489 19.1 15.1106 19.1C15.2786 19.1 15.4719 19.019 15.5879 18.8776L18.9041 15.6088L18.9046 15.6093L18.912 15.6C19.0155 15.4706 19.0999 15.3068 19.0999 15.1107C19.0999 14.9232 19.0453 14.7537 18.9046 14.6131L12.5418 8.25025C13.0475 6.24031 12.4655 4.11888 10.984 2.63718C9.87369 1.5029 8.37743 0.9 6.81018 0.9C6.01403 0.9 5.2424 1.06874 4.51966 1.38159C4.29343 1.46747 4.15762 1.66433 4.10447 1.87693ZM8.94413 11.2455L8.94456 11.2451L8.93589 11.2381C8.80643 11.1346 8.6427 11.0502 8.44654 11.0502C8.37906 11.0502 8.29539 11.0793 8.24188 11.1052C7.78146 11.2655 7.29679 11.3348 6.81018 11.3348C5.60319 11.3348 4.46666 10.8708 3.60816 10.0123C2.56365 8.96778 2.11511 7.49733 2.34432 6.09059L3.75132 7.49759C4.24494 7.99121 4.91094 8.26206 5.6244 8.26206C6.33787 8.26206 7.00387 7.99121 7.49749 7.49759C8.53259 6.46249 8.53259 4.78652 7.49749 3.75142L6.08794 2.34187C6.32729 2.30068 6.5678 2.28577 6.81018 2.28577C8.01716 2.28577 9.15369 2.74976 10.0122 3.60826C11.2183 4.81435 11.6364 6.57715 11.1025 8.22567C11.0203 8.47297 11.075 8.75009 11.2691 8.94423L11.2692 8.94436L17.4354 15.0871L15.1106 17.4119L8.94413 11.2455Z" fill="#5864A2" stroke="#5864A2" stroke-width="0.2"/>
</g>
<defs>
<clipPath id="clip0_33_1830">
<rect width="20" height="20" fill="white"/>
</clipPath>
</defs>
</svg>
