<svg width="16" height="16" viewBox="0 0 16 16" fill="none" xmlns="http://www.w3.org/2000/svg">
<path fill-rule="evenodd" clip-rule="evenodd" d="M0.888889 8.88889H6.22222C6.71111 8.88889 7.11111 8.48889 7.11111 8V0.888889C7.11111 0.4 6.71111 0 6.22222 0H0.888889C0.4 0 0 0.4 0 0.888889V8C0 8.48889 0.4 8.88889 0.888889 8.88889ZM0.888889 16H6.22222C6.71111 16 7.11111 15.6 7.11111 15.1111V11.5555C7.11111 11.0666 6.71111 10.6666 6.22222 10.6666H0.888889C0.4 10.6666 0 11.0666 0 11.5555V15.1111C0 15.6 0.4 16 0.888889 16ZM9.77781 16H15.1111C15.6 16 16 15.6 16 15.1111V7.99999C16 7.5111 15.6 7.1111 15.1111 7.1111H9.77781C9.28892 7.1111 8.88892 7.5111 8.88892 7.99999V15.1111C8.88892 15.6 9.28892 16 9.77781 16ZM8.8889 0.888889V4.44444C8.8889 4.93333 9.2889 5.33333 9.77779 5.33333H15.1111C15.6 5.33333 16 4.93333 16 4.44444V0.888889C16 0.4 15.6 0 15.1111 0H9.77779C9.2889 0 8.8889 0.4 8.8889 0.888889Z" fill="#5D6E91"/>
</svg>
