<svg width="18" height="18" viewBox="0 0 18 18" fill="none" xmlns="http://www.w3.org/2000/svg">
<path d="M0.899994 3.6C0.899994 2.61 1.70999 1.8 2.69999 1.8H15.3C15.7774 1.8 16.2352 1.98964 16.5728 2.32721C16.9104 2.66477 17.1 3.12261 17.1 3.6V16.2C17.1 16.6774 16.9104 17.1352 16.5728 17.4728C16.2352 17.8104 15.7774 18 15.3 18H2.69999C2.2226 18 1.76477 17.8104 1.4272 17.4728C1.08964 17.1352 0.899994 16.6774 0.899994 16.2V3.6ZM2.69999 5.4V16.2H15.3V5.4H2.69999ZM4.49999 0H6.29999V1.8H4.49999V0ZM11.7 0H13.5V1.8H11.7V0ZM4.49999 8.1H6.29999V9.9H4.49999V8.1ZM4.49999 11.7H6.29999V13.5H4.49999V11.7ZM8.09999 8.1H9.89999V9.9H8.09999V8.1ZM8.09999 11.7H9.89999V13.5H8.09999V11.7ZM11.7 8.1H13.5V9.9H11.7V8.1ZM11.7 11.7H13.5V13.5H11.7V11.7Z" fill="#A4ACD6"/>
</svg>
