<svg width="17" height="17" viewBox="0 0 17 17" fill="none" xmlns="http://www.w3.org/2000/svg">
<path fill-rule="evenodd" clip-rule="evenodd" d="M8.5 2C4.91015 2 2 4.91015 2 8.5C2 12.0899 4.91015 15 8.5 15C12.0899 15 15 12.0899 15 8.5C15 4.91015 12.0899 2 8.5 2ZM0 8.5C0 3.80558 3.80558 0 8.5 0C13.1944 0 17 3.80558 17 8.5C17 13.1944 13.1944 17 8.5 17C3.80558 17 0 13.1944 0 8.5Z" fill="#5864A2"/>
<path fill-rule="evenodd" clip-rule="evenodd" d="M8.5 6.75C7.5335 6.75 6.75 7.5335 6.75 8.5C6.75 9.4665 7.5335 10.25 8.5 10.25C9.4665 10.25 10.25 9.4665 10.25 8.5C10.25 7.5335 9.4665 6.75 8.5 6.75ZM5.25 8.5C5.25 6.70507 6.70507 5.25 8.5 5.25C10.2949 5.25 11.75 6.70507 11.75 8.5C11.75 10.2949 10.2949 11.75 8.5 11.75C6.70507 11.75 5.25 10.2949 5.25 8.5Z" fill="#5864A2"/>
</svg>
