<svg width="20" height="20" viewBox="0 0 20 20" fill="none" xmlns="http://www.w3.org/2000/svg">
<g clip-path="url(#clip0_160_2255)">
<path d="M15.625 10.2C16.6196 10.2 17.5734 9.80492 18.2767 9.10166C18.9799 8.3984 19.375 7.44457 19.375 6.45001C19.375 4.53751 16.425 1.20001 16.0875 0.825013C16.0289 0.760564 15.9575 0.709069 15.8779 0.673832C15.7982 0.638594 15.7121 0.620392 15.625 0.620392C15.5379 0.620392 15.4518 0.638594 15.3721 0.673832C15.2925 0.709069 15.2211 0.760564 15.1625 0.825013C14.825 1.20001 11.875 4.53751 11.875 6.45001C11.875 7.44457 12.2701 8.3984 12.9733 9.10166C13.6766 9.80492 14.6304 10.2 15.625 10.2Z" fill="#5864A2"/>
<path d="M17.4998 14.0312L14.9998 14.5437C15.0059 14.423 15.0059 14.302 14.9998 14.1812C14.9933 13.9339 14.938 13.6903 14.837 13.4644C14.7359 13.2386 14.5912 13.035 14.4111 12.8653C14.2309 12.6957 14.019 12.5633 13.7876 12.476C13.5561 12.3886 13.3096 12.3479 13.0623 12.3562C12.2502 12.3811 11.444 12.2095 10.7123 11.8562L9.53105 11.3375C9.21388 11.2004 8.86087 11.1697 8.5248 11.25C8.48141 11.2558 8.43922 11.2684 8.3998 11.2875L7.6248 11.6375C7.85367 12.2586 7.91405 12.9292 7.7998 13.5812L7.0623 17.5437C7.0623 17.6375 7.0123 17.725 6.9873 17.8187L10.3311 19.1062C10.7805 19.2847 11.2599 19.376 11.7436 19.375C12.2384 19.3747 12.7286 19.2793 13.1873 19.0937L18.3686 16.9937C18.7461 16.84 19.0511 16.5485 19.2217 16.1783C19.3923 15.8081 19.4157 15.3869 19.2873 15C19.1561 14.6502 18.903 14.3596 18.5746 14.1816C18.2461 14.0036 17.8645 13.9502 17.4998 14.0312Z" fill="#5864A2"/>
<path d="M5.00001 10.8062L1.36251 10.2562C1.27207 10.2397 1.1791 10.2433 1.09021 10.2668C1.00133 10.2903 0.918725 10.3331 0.848291 10.3922C0.777856 10.4513 0.721327 10.5252 0.682732 10.6087C0.644138 10.6921 0.62443 10.7831 0.625013 10.875V18.375C0.625013 18.5408 0.690861 18.6997 0.808071 18.8169C0.925281 18.9341 1.08425 19 1.25001 19H4.00001C4.45473 18.9814 4.88818 18.8024 5.22342 18.4946C5.55866 18.1868 5.77401 17.7702 5.83126 17.3187L6.56876 13.35C6.6261 13.0436 6.62192 12.7289 6.55647 12.4242C6.49101 12.1195 6.36559 11.8308 6.18751 11.575C6.05175 11.3733 5.87654 11.2012 5.67245 11.0691C5.46835 10.9369 5.23961 10.8475 5.00001 10.8062Z" fill="#5864A2"/>
</g>
<defs>
<clipPath id="clip0_160_2255">
<rect width="20" height="20" fill="white"/>
</clipPath>
</defs>
</svg>
