<svg width="19" height="22" viewBox="0 0 19 22" fill="none" xmlns="http://www.w3.org/2000/svg">
<path d="M10.6481 9.70076C10.4831 9.18791 10.0222 8.84106 9.50446 8.84106C8.98386 8.84106 8.52299 9.18791 8.36084 9.70076L5.15472 19.691C5.03239 20.0734 5.09213 20.4973 5.31972 20.8234C5.54731 21.1525 5.91144 21.3452 6.29834 21.3452H12.7049C13.0918 21.3452 13.4588 21.1495 13.6835 20.8234C13.9111 20.4944 13.9708 20.0734 13.8485 19.691L10.6481 9.70076Z" fill="#5D6E90"/>
<path d="M9.50172 0.338867C4.26155 0.338867 0 4.77963 0 10.2402C0 13.4892 1.5106 16.3796 3.83767 18.1849L4.55172 15.9557C3.0525 14.5446 2.11086 12.505 2.11086 10.2402C2.11086 5.9921 5.42793 2.5385 9.50172 2.5385C13.5784 2.5385 16.8926 5.99506 16.8926 10.2402C16.8926 12.505 15.9481 14.5446 14.4517 15.9557L15.1658 18.1879C17.4928 16.3825 19.0034 13.4922 19.0034 10.2431C19.0063 4.77963 14.7419 0.338867 9.50172 0.338867Z" fill="#5D6E90"/>
<path d="M9.50177 3.98218C6.19039 3.98218 3.49634 6.78952 3.49634 10.2402C3.49634 11.8469 4.08522 13.3084 5.04392 14.4171L5.89453 11.7609C5.70961 11.2896 5.6072 10.7767 5.6072 10.2372C5.6072 7.99902 7.35392 6.17885 9.50177 6.17885C11.6496 6.17885 13.3963 7.99902 13.3963 10.2372C13.3963 10.7767 13.2939 11.2896 13.109 11.7609L13.9596 14.4171C14.9183 13.3084 15.5072 11.8469 15.5072 10.2402C15.5072 6.78952 12.8131 3.98218 9.50177 3.98218Z" fill="#5D6E90"/>
</svg>
