<svg width="20" height="19" viewBox="0 0 20 19" fill="none" xmlns="http://www.w3.org/2000/svg">
<path d="M9.38818 0.251814C9.54073 0.104144 9.73596 0.0160458 9.9418 0.00198787C10.1476 -0.0120701 10.3519 0.048748 10.5209 0.174454L10.6118 0.251814L20 9.33001H17.2727V18.033C17.2727 18.2699 17.1909 18.4985 17.043 18.6754C16.895 18.8524 16.6911 18.9655 16.47 18.9932L16.3636 19H10.4545L12.7273 15.132L9.54545 12.231L13.1818 9.33001L10.9091 7.39601L11.3636 4.49501L8.63636 7.39601L10.9091 9.33001L6.36364 12.231L9.77273 15.6155L6.81818 19H3.63636C3.4137 19 3.19878 18.913 3.03239 18.7556C2.86599 18.5982 2.75969 18.3814 2.73364 18.1461L2.72727 18.033V9.33001H0L9.38818 0.251814Z" fill="#5864A2"/>
</svg>
