<svg width="22" height="18" viewBox="0 0 22 18" fill="none" xmlns="http://www.w3.org/2000/svg">
<path d="M1.35156 14.3962C1.98434 14.3962 2.27891 14.6196 2.65184 14.9025C3.07063 15.2199 3.59159 15.6151 4.56606 15.6151C5.54077 15.6151 6.06172 15.2199 6.48051 14.9025C6.85368 14.6196 7.1485 14.3962 7.78153 14.3962C8.41406 14.3962 8.70863 14.6196 9.08131 14.9025C9.49986 15.2199 10.0208 15.6151 10.995 15.6151C11.97 15.6151 12.4912 15.2199 12.91 14.9025C13.2832 14.6196 13.578 14.3962 14.2113 14.3962C14.8455 14.3962 15.1406 14.6196 15.5143 14.9028C15.9333 15.2201 16.4547 15.6151 17.43 15.6151C18.4052 15.6151 18.9266 15.2201 19.3459 14.9028C19.7193 14.6196 20.0144 14.3962 20.6484 14.3962C20.7831 14.3962 20.9123 14.3427 21.0075 14.2474C21.1027 14.1522 21.1562 14.023 21.1562 13.8884C21.1562 13.7537 21.1027 13.6245 21.0075 13.5293C20.9123 13.4341 20.7831 13.3806 20.6484 13.3806C19.6732 13.3806 19.1518 13.7756 18.7325 14.0929C18.3591 14.3761 18.064 14.5995 17.43 14.5995C16.7959 14.5995 16.5009 14.3761 16.1275 14.0932C15.7082 13.7755 15.1867 13.3806 14.2113 13.3806C13.2365 13.3806 12.7153 13.7755 12.2965 14.0932C11.9234 14.3761 11.6286 14.5995 10.995 14.5995C10.3625 14.5995 10.0679 14.3761 9.69524 14.0932C9.27669 13.7758 8.75574 13.3806 7.78152 13.3806C6.80681 13.3806 6.28585 13.7758 5.86707 14.0932C5.4939 14.3761 5.19908 14.5995 4.56605 14.5995C3.93327 14.5995 3.6387 14.3761 3.26577 14.0932C2.84698 13.7758 2.32605 13.3806 1.35156 13.3806C1.21688 13.3806 1.08772 13.4341 0.992485 13.5293C0.897252 13.6245 0.84375 13.7537 0.84375 13.8884C0.84375 14.023 0.897252 14.1522 0.992485 14.2474C1.08772 14.3427 1.21688 14.3962 1.35156 14.3962Z" fill="#5864A2"/>
<path d="M20.6484 15.6794C19.6732 15.6794 19.1518 16.0744 18.7327 16.3918C18.3591 16.6747 18.064 16.8981 17.43 16.8981C16.796 16.8981 16.5009 16.6747 16.1272 16.3918C15.7082 16.0744 15.1868 15.6794 14.2113 15.6794C13.2366 15.6794 12.7154 16.0744 12.2966 16.3918C11.9234 16.6747 11.6286 16.8981 10.995 16.8981C10.3625 16.8981 10.0679 16.6747 9.69525 16.392C9.27671 16.0744 8.75575 15.6794 7.78154 15.6794C6.80704 15.6794 6.28587 16.0744 5.86708 16.3918C5.49391 16.6747 5.19934 16.8981 4.56607 16.8981C3.93328 16.8981 3.63871 16.6747 3.26556 16.392C2.84698 16.0744 2.32605 15.6794 1.35156 15.6794C1.21688 15.6794 1.08772 15.7329 0.992485 15.8281C0.897252 15.9234 0.84375 16.0525 0.84375 16.1872C0.84375 16.3219 0.897252 16.451 0.992485 16.5463C1.08772 16.6415 1.21688 16.695 1.35156 16.695C1.98434 16.695 2.27891 16.9184 2.65207 17.2011C3.07061 17.5187 3.59157 17.9137 4.56602 17.9137C5.54046 17.9137 6.06168 17.5187 6.48047 17.2013C6.85364 16.9184 7.14821 16.695 7.78148 16.695C8.41402 16.695 8.70859 16.9184 9.08127 17.2011C9.49981 17.5187 10.0208 17.9137 10.995 17.9137C11.9697 17.9137 12.4911 17.5187 12.9099 17.2013C13.2831 16.9184 13.5779 16.695 14.2112 16.695C14.8455 16.695 15.1405 16.9184 15.5142 17.2013C15.9333 17.5187 16.4547 17.9137 17.4299 17.9137C18.4052 17.9137 18.9266 17.5187 19.3456 17.2013C19.7193 16.9184 20.0144 16.695 20.6484 16.695C20.7831 16.695 20.9122 16.6415 21.0075 16.5463C21.1027 16.451 21.1562 16.3219 21.1562 16.1872C21.1562 16.0525 21.1027 15.9234 21.0075 15.8281C20.9122 15.7329 20.7831 15.6794 20.6484 15.6794H20.6484Z" fill="#5864A2"/>
<path d="M18.1187 13.2836C18.5247 12.9763 19.1764 12.4883 20.2474 12.3867V0.0862427H18.7259L17.5356 13.5771C17.7401 13.5618 17.8377 13.4966 18.1187 13.2836Z" fill="#5864A2"/>
<path d="M4.04765 6.68567C4.07565 6.37003 4.17079 6.06403 4.32668 5.78815C4.48257 5.51227 4.69562 5.2729 4.95155 5.08606V5.08098C5.33354 4.80272 5.7942 4.65331 6.26679 4.65442H9.0496L8.36603 12.4099C8.94109 12.4905 9.4892 12.705 9.96631 13.036L10.5269 6.68567C10.5549 6.37003 10.65 6.06403 10.8059 5.78815C10.9618 5.51227 11.1748 5.2729 11.4308 5.08606V5.08098C11.8128 4.80272 12.2734 4.65331 12.746 4.65442H15.5288L14.8446 12.4167C15.4658 12.5148 16.053 12.7648 16.5543 13.1445L17.7063 0.0862427H2.98178L1.89502 12.403C2.46621 12.4772 3.01223 12.6835 3.48974 13.0056L4.04765 6.68567Z" fill="#5864A2"/>
</svg>
